<?xml version="1.0" encoding="UTF-8"?>
<svg xmlns="http://www.w3.org/2000/svg" xmlns:xlink="http://www.w3.org/1999/xlink" width="102px" height="40px" viewBox="0 0 101 40" version="1.1">
<defs>
<filter id="alpha" filterUnits="objectBoundingBox" x="0%" y="0%" width="100%" height="100%">
  <feColorMatrix type="matrix" in="SourceGraphic" values="0 0 0 0 1 0 0 0 0 1 0 0 0 0 1 0 0 0 1 0"/>
</filter>
<mask id="mask0">
  <g filter="url(#alpha)">
<rect x="0" y="0" width="101" height="40" style="fill:rgb(0%,0%,0%);fill-opacity:0.898039;stroke:none;"/>
  </g>
</mask>
<clipPath id="clip1">
  <rect x="0" y="0" width="101" height="40"/>
</clipPath>
<g id="surface5" clip-path="url(#clip1)">
<path style=" stroke:none;fill-rule:evenodd;fill:rgb(2.745098%,2.745098%,2.745098%);fill-opacity:1;" d="M 60.375 6.421875 C 62.144531 6.390625 63.863281 6.667969 65.535156 7.253906 C 67.710938 8.421875 68.601562 10.234375 68.210938 12.695312 C 68.101562 13.152344 67.957031 13.59375 67.769531 14.019531 C 68.121094 13.972656 68.480469 13.90625 68.839844 13.824219 C 69.132812 13.757812 69.425781 13.757812 69.71875 13.824219 C 70.476562 14.078125 71.253906 14.210938 72.050781 14.214844 C 72.5625 14.328125 73.050781 14.507812 73.511719 14.753906 C 73.789062 14.335938 74.179688 14.09375 74.679688 14.019531 C 75.371094 13.933594 76.054688 13.980469 76.722656 14.167969 C 76.335938 12.4375 76.726562 10.886719 77.890625 9.511719 C 79.515625 8.546875 81.023438 8.695312 82.414062 9.949219 C 83.121094 11.613281 82.78125 13.035156 81.394531 14.214844 C 82.027344 14.039062 82.675781 13.894531 83.339844 13.773438 C 84.269531 13.980469 85.210938 14.128906 86.160156 14.214844 C 87.285156 14.347656 88.015625 14.953125 88.351562 16.03125 C 88.648438 16.808594 88.664062 17.59375 88.398438 18.382812 C 90.125 18.429688 90.726562 19.28125 90.199219 20.929688 C 89.285156 22.828125 87.96875 24.378906 86.257812 25.589844 C 85.566406 25.984375 84.820312 26.179688 84.019531 26.175781 C 83.433594 26.4375 82.914062 26.796875 82.464844 27.253906 C 84.785156 27.644531 87.121094 27.777344 89.46875 27.648438 C 90.308594 27.683594 90.957031 27.355469 91.414062 26.667969 C 92.292969 26.191406 93.152344 26.210938 93.996094 26.714844 C 94.332031 27.640625 94.300781 28.554688 93.898438 29.460938 C 92.953125 30.738281 91.703125 31.539062 90.152344 31.863281 C 89.386719 32.089844 88.605469 32.25 87.816406 32.351562 C 82.980469 32.414062 78.148438 32.382812 73.316406 32.253906 C 73.050781 32.296875 72.792969 32.359375 72.539062 32.449219 C 72.105469 32.722656 71.652344 32.953125 71.175781 33.136719 C 70.523438 33.292969 69.957031 33.144531 69.472656 32.695312 C 67.808594 33.945312 65.976562 34.289062 63.976562 33.726562 C 63.523438 33.53125 63.101562 33.285156 62.710938 32.988281 C 62.328125 33.097656 61.9375 33.113281 61.542969 33.039062 C 61.074219 32.792969 60.585938 32.597656 60.085938 32.449219 C 59.078125 32.414062 58.070312 32.347656 57.066406 32.253906 C 50.875 32.304688 44.679688 32.386719 38.484375 32.5 C 34.976562 32.582031 31.507812 32.269531 28.070312 31.570312 C 27.167969 31.351562 26.292969 31.058594 25.445312 30.6875 C 24.5625 30.171875 23.945312 29.4375 23.597656 28.480469 C 22.015625 29.28125 20.359375 29.476562 18.632812 29.070312 C 18.105469 29.355469 17.585938 29.667969 17.078125 30 C 15.800781 30.5 14.503906 30.566406 13.183594 30.195312 C 11.625 29.605469 10.070312 29.019531 8.515625 28.429688 C 8.191406 28.367188 7.867188 28.367188 7.539062 28.429688 C 7.113281 28.679688 6.660156 28.875 6.179688 29.019531 C 4.78125 29.082031 4.148438 28.414062 4.28125 27.011719 C 4.691406 25.941406 5.390625 25.109375 6.375 24.511719 C 7.25 24.140625 8.140625 23.828125 9.050781 23.578125 C 11.222656 18.742188 13.75 14.101562 16.640625 9.65625 C 16.945312 8.78125 17.238281 7.898438 17.515625 7.011719 C 17.785156 6.789062 18.09375 6.640625 18.4375 6.570312 C 19.816406 6.425781 21.113281 6.6875 22.332031 7.351562 C 23.625 8.121094 23.933594 9.183594 23.253906 10.539062 C 20.367188 14.886719 17.480469 19.230469 14.59375 23.578125 C 14.378906 23.875 14.234375 24.203125 14.15625 24.558594 C 14.742188 24.621094 15.3125 24.753906 15.859375 24.949219 C 16.328125 21.605469 17.769531 18.777344 20.191406 16.46875 C 21.640625 15.242188 23.296875 14.390625 25.152344 13.921875 C 26.128906 13.027344 27.28125 12.523438 28.605469 12.402344 C 29.261719 12.496094 29.894531 12.675781 30.503906 12.941406 C 30.902344 13.25 31.132812 13.65625 31.183594 14.167969 C 31.835938 13.867188 32.519531 13.753906 33.230469 13.824219 C 34.160156 14.039062 35.101562 14.203125 36.050781 14.3125 C 36.453125 14.382812 36.792969 14.5625 37.070312 14.851562 C 37.28125 14.28125 37.6875 13.972656 38.289062 13.921875 C 38.9375 13.890625 39.585938 13.921875 40.234375 14.019531 C 40.824219 14.191406 41.410156 14.371094 41.984375 14.558594 C 42.863281 14.199219 43.769531 13.9375 44.710938 13.773438 C 46.019531 13.917969 47.074219 14.507812 47.871094 15.539062 C 48.519531 16.601562 48.40625 17.566406 47.53125 18.429688 C 48.441406 18.5625 48.960938 19.085938 49.089844 20 C 48.0625 22.65625 46.570312 25.007812 44.613281 27.058594 C 46.074219 26.992188 47.535156 26.863281 48.992188 26.667969 C 49.15625 25.394531 49.496094 24.171875 50.011719 22.988281 C 50.867188 21.417969 51.757812 19.863281 52.6875 18.332031 C 50.1875 17.835938 49.132812 16.316406 49.527344 13.773438 C 49.871094 12.152344 50.664062 10.796875 51.910156 9.707031 C 54.375 7.675781 57.199219 6.578125 60.375 6.421875 Z M 61.835938 10.539062 C 61.972656 10.4375 62.101562 10.472656 62.226562 10.636719 C 62.328125 10.859375 62.34375 11.089844 62.273438 11.324219 C 62.199219 11.011719 62.054688 10.75 61.835938 10.539062 Z M 79.351562 15.636719 C 79.59375 15.636719 79.609375 15.703125 79.398438 15.832031 C 79.355469 15.773438 79.335938 15.710938 79.351562 15.636719 Z M 55.609375 23.578125 C 55.382812 24.625 55.15625 25.667969 54.925781 26.714844 C 54.5 26.746094 54.078125 26.714844 53.664062 26.617188 C 54.289062 25.582031 54.9375 24.570312 55.609375 23.578125 Z M 32.644531 26.519531 C 32.769531 26.921875 32.898438 27.328125 33.035156 27.746094 C 32.417969 27.808594 31.800781 27.808594 31.183594 27.746094 C 31.679688 27.335938 32.164062 26.925781 32.644531 26.519531 Z M 37.21875 27.109375 C 37.375 27.285156 37.40625 27.480469 37.316406 27.695312 C 37.222656 27.511719 37.1875 27.3125 37.21875 27.109375 Z M 37.21875 27.109375 "/>
</g>
<mask id="mask1">
  <g filter="url(#alpha)">
<rect x="0" y="0" width="101" height="40" style="fill:rgb(0%,0%,0%);fill-opacity:0.964706;stroke:none;"/>
  </g>
</mask>
<clipPath id="clip2">
  <rect x="0" y="0" width="101" height="40"/>
</clipPath>
<g id="surface8" clip-path="url(#clip2)">
<path style=" stroke:none;fill-rule:evenodd;fill:rgb(4.705882%,4.705882%,4.705882%);fill-opacity:1;" d="M 60.375 15.34375 C 60.292969 15.308594 60.261719 15.246094 60.277344 15.148438 C 60.652344 14.59375 61.023438 14.039062 61.398438 13.480469 C 61.847656 12.65625 61.847656 11.839844 61.398438 11.03125 C 60.929688 10.652344 60.492188 10.246094 60.085938 9.804688 C 60.792969 9.625 61.507812 9.625 62.226562 9.804688 C 63.019531 10.261719 63.230469 10.933594 62.855469 11.8125 C 62.480469 13.332031 61.652344 14.507812 60.375 15.34375 Z M 61.835938 10.539062 C 62.054688 10.75 62.199219 11.011719 62.273438 11.324219 C 62.34375 11.089844 62.328125 10.859375 62.226562 10.636719 C 62.101562 10.472656 61.972656 10.4375 61.835938 10.539062 Z M 61.835938 10.539062 "/>
</g>
<mask id="mask2">
  <g filter="url(#alpha)">
<rect x="0" y="0" width="101" height="40" style="fill:rgb(0%,0%,0%);fill-opacity:0.937255;stroke:none;"/>
  </g>
</mask>
<clipPath id="clip3">
  <rect x="0" y="0" width="101" height="40"/>
</clipPath>
<g id="surface11" clip-path="url(#clip3)">
<path style=" stroke:none;fill-rule:evenodd;fill:rgb(3.921569%,3.921569%,3.921569%);fill-opacity:1;" d="M 57.359375 19.265625 C 57.488281 19.265625 57.621094 19.265625 57.75 19.265625 C 57.726562 19.773438 57.613281 20.265625 57.410156 20.734375 C 56.472656 22.769531 55.824219 24.894531 55.460938 27.109375 C 55.414062 27.222656 55.332031 27.304688 55.21875 27.351562 C 54.375 27.417969 53.53125 27.417969 52.6875 27.351562 C 52.609375 27.324219 52.546875 27.273438 52.496094 27.207031 C 54.117188 24.558594 55.742188 21.910156 57.359375 19.265625 Z M 55.609375 23.578125 C 54.9375 24.570312 54.289062 25.582031 53.664062 26.617188 C 54.078125 26.714844 54.5 26.746094 54.925781 26.714844 C 55.15625 25.667969 55.382812 24.625 55.609375 23.578125 Z M 55.609375 23.578125 "/>
</g>
<mask id="mask3">
  <g filter="url(#alpha)">
<rect x="0" y="0" width="101" height="40" style="fill:rgb(0%,0%,0%);fill-opacity:0.996078;stroke:none;"/>
  </g>
</mask>
<clipPath id="clip4">
  <rect x="0" y="0" width="101" height="40"/>
</clipPath>
<g id="surface14" clip-path="url(#clip4)">
<path style=" stroke:none;fill-rule:evenodd;fill:rgb(5.098039%,5.098039%,5.098039%);fill-opacity:1;" d="M 23.691406 23.675781 C 23.886719 23.644531 24.015625 23.707031 24.082031 23.871094 C 23.25 24.589844 22.371094 25.257812 21.457031 25.882812 C 20.660156 26.128906 20.386719 25.851562 20.628906 25.050781 C 20.695312 24.894531 20.777344 24.746094 20.871094 24.609375 C 21.78125 24.207031 22.722656 23.894531 23.691406 23.675781 Z M 23.691406 23.675781 "/>
</g>
<mask id="mask4">
  <g filter="url(#alpha)">
<rect x="0" y="0" width="101" height="40" style="fill:rgb(0%,0%,0%);fill-opacity:0.964706;stroke:none;"/>
  </g>
</mask>
<clipPath id="clip5">
  <rect x="0" y="0" width="101" height="40"/>
</clipPath>
<g id="surface17" clip-path="url(#clip5)">
<path style=" stroke:none;fill-rule:evenodd;fill:rgb(5.882353%,5.882353%,5.882353%);fill-opacity:1;" d="M 38.386719 27.890625 C 38.402344 28.023438 38.371094 28.136719 38.289062 28.234375 C 37.976562 28.253906 37.6875 28.300781 37.414062 28.382812 C 37.125 28.410156 36.851562 28.375 36.585938 28.285156 C 36.519531 27.792969 36.519531 27.304688 36.585938 26.8125 C 36.890625 26.003906 37.296875 25.25 37.800781 24.558594 C 37.828125 25.242188 37.84375 25.925781 37.851562 26.617188 C 37.976562 27.066406 38.15625 27.492188 38.386719 27.890625 Z M 37.21875 27.109375 C 37.1875 27.3125 37.222656 27.511719 37.316406 27.695312 C 37.40625 27.480469 37.375 27.285156 37.21875 27.109375 Z M 37.21875 27.109375 "/>
</g>
<mask id="mask5">
  <g filter="url(#alpha)">
<rect x="0" y="0" width="101" height="40" style="fill:rgb(0%,0%,0%);fill-opacity:0.929412;stroke:none;"/>
  </g>
</mask>
<clipPath id="clip6">
  <rect x="0" y="0" width="101" height="40"/>
</clipPath>
<g id="surface20" clip-path="url(#clip6)">
<path style=" stroke:none;fill-rule:evenodd;fill:rgb(3.921569%,3.921569%,3.921569%);fill-opacity:1;" d="M 32.9375 25.539062 C 33.097656 25.519531 33.242188 25.550781 33.375 25.636719 C 33.28125 26.621094 33.523438 27.503906 34.105469 28.285156 C 34.070312 28.316406 34.039062 28.351562 34.007812 28.382812 C 32.324219 28.480469 30.640625 28.511719 28.949219 28.480469 C 28.929688 28.351562 28.964844 28.238281 29.042969 28.136719 C 29.34375 28.027344 29.636719 27.894531 29.921875 27.746094 C 30.917969 26.984375 31.921875 26.25 32.9375 25.539062 Z M 32.644531 26.519531 C 32.164062 26.925781 31.679688 27.335938 31.183594 27.746094 C 31.800781 27.808594 32.417969 27.808594 33.035156 27.746094 C 32.898438 27.328125 32.769531 26.921875 32.644531 26.519531 Z M 32.644531 26.519531 "/>
</g>
</defs>
<g id="surface1">
<use xlink:href="#surface5" mask="url(#mask0)"/>
<path style=" stroke:none;fill-rule:evenodd;fill:rgb(97.647059%,96.078431%,96.078431%);fill-opacity:1;" d="M 87.71875 18.578125 C 87.625 18.75 87.59375 18.949219 87.621094 19.167969 C 88.042969 19.167969 88.464844 19.167969 88.886719 19.167969 C 89.578125 19.195312 89.855469 19.554688 89.714844 20.246094 C 88.859375 22.28125 87.511719 23.898438 85.675781 25.097656 C 85.460938 25.222656 85.230469 25.320312 84.992188 25.390625 C 84.21875 25.375 83.503906 25.570312 82.851562 25.980469 C 82.171875 26.535156 81.492188 27.089844 80.808594 27.648438 C 81.21875 27.769531 81.640625 27.867188 82.074219 27.941406 C 83.277344 28.074219 84.476562 28.207031 85.675781 28.332031 C 87.371094 28.441406 89.054688 28.375 90.734375 28.136719 C 91.273438 27.890625 91.726562 27.53125 92.097656 27.058594 C 92.519531 26.992188 92.941406 26.992188 93.363281 27.058594 C 93.761719 28.234375 93.46875 29.214844 92.484375 30 C 90.996094 30.925781 89.375 31.480469 87.621094 31.667969 C 83.109375 31.753906 78.601562 31.703125 74.097656 31.519531 C 73.429688 31.527344 72.78125 31.640625 72.148438 31.863281 C 71.695312 32.175781 71.207031 32.421875 70.691406 32.597656 C 70.515625 32.589844 70.351562 32.542969 70.203125 32.449219 C 70.019531 32.226562 69.824219 32.011719 69.621094 31.8125 C 68.453125 32.710938 67.140625 33.234375 65.679688 33.382812 C 65.164062 33.371094 64.660156 33.289062 64.171875 33.136719 C 63.734375 32.84375 63.296875 32.566406 62.855469 32.304688 C 62.585938 32.378906 62.308594 32.445312 62.03125 32.5 C 61.414062 32.191406 60.765625 31.945312 60.085938 31.765625 C 58.914062 31.722656 57.746094 31.65625 56.582031 31.570312 C 50.53125 31.625 44.484375 31.707031 38.433594 31.8125 C 36.957031 31.773438 35.484375 31.742188 34.007812 31.714844 C 33.578125 31.570312 33.125 31.507812 32.644531 31.519531 C 30.441406 31.433594 28.300781 31.023438 26.222656 30.292969 C 24.960938 29.789062 24.28125 28.859375 24.179688 27.5 C 23.261719 27.894531 22.320312 28.238281 21.359375 28.53125 C 20.28125 28.589844 19.210938 28.558594 18.148438 28.429688 C 17.539062 28.945312 16.859375 29.335938 16.105469 29.609375 C 15.121094 29.820312 14.148438 29.789062 13.183594 29.511719 C 11.800781 29.007812 10.4375 28.453125 9.097656 27.84375 C 8.519531 27.710938 7.933594 27.679688 7.347656 27.746094 C 6.839844 27.984375 6.320312 28.195312 5.789062 28.382812 C 4.921875 28.128906 4.679688 27.574219 5.058594 26.714844 C 6.074219 25.296875 7.453125 24.496094 9.195312 24.3125 C 9.367188 24.238281 9.515625 24.121094 9.632812 23.96875 C 11.8125 19.117188 14.34375 14.476562 17.222656 10.050781 C 17.59375 9.3125 17.820312 8.527344 17.902344 7.695312 C 18.050781 7.550781 18.195312 7.402344 18.339844 7.253906 C 20.046875 7.027344 21.523438 7.5 22.769531 8.675781 C 22.914062 8.992188 22.945312 9.316406 22.867188 9.65625 C 20.019531 14.0625 17.132812 18.441406 14.207031 22.792969 C 13.90625 23.367188 13.582031 23.921875 13.234375 24.460938 C 13.160156 24.652344 13.175781 24.832031 13.28125 25 C 14.039062 25.160156 14.785156 25.355469 15.519531 25.589844 C 15.8125 25.652344 16.105469 25.652344 16.394531 25.589844 C 16.828125 22.003906 18.386719 19.03125 21.066406 16.667969 C 22.402344 15.632812 23.894531 14.914062 25.542969 14.511719 C 26.183594 13.960938 26.898438 13.535156 27.683594 13.234375 C 28.335938 13.160156 28.984375 13.191406 29.628906 13.332031 C 30.082031 13.476562 30.371094 13.769531 30.503906 14.214844 C 30.390625 14.625 30.214844 15 29.96875 15.34375 C 29.894531 15.453125 29.914062 15.550781 30.019531 15.636719 C 30.683594 15.105469 31.429688 14.730469 32.253906 14.511719 C 32.90625 14.398438 33.523438 14.496094 34.105469 14.804688 C 35.269531 14.660156 36.261719 15.003906 37.070312 15.832031 C 37.175781 16.078125 37.308594 16.308594 37.460938 16.519531 C 37.585938 16.078125 37.648438 15.621094 37.65625 15.148438 C 37.777344 14.859375 37.988281 14.679688 38.289062 14.609375 C 39.386719 14.507812 40.425781 14.703125 41.402344 15.195312 C 41.792969 15.261719 42.179688 15.261719 42.570312 15.195312 C 44.25 14.097656 45.789062 14.277344 47.191406 15.734375 C 47.679688 16.3125 47.746094 16.933594 47.386719 17.597656 C 46.933594 17.941406 46.527344 18.332031 46.171875 18.773438 C 46.078125 18.878906 46.046875 19.011719 46.074219 19.167969 C 46.460938 19.167969 46.851562 19.167969 47.242188 19.167969 C 48.089844 19.125 48.429688 19.515625 48.261719 20.34375 C 46.972656 23.1875 45.171875 25.65625 42.863281 27.746094 C 43.542969 27.808594 44.222656 27.808594 44.90625 27.746094 C 46.476562 27.667969 48.03125 27.503906 49.574219 27.253906 C 49.648438 26.125 49.894531 25.03125 50.304688 23.96875 C 51.363281 21.886719 52.480469 19.84375 53.664062 17.84375 C 53.648438 17.765625 53.617188 17.703125 53.566406 17.648438 C 50.976562 17.589844 49.859375 16.265625 50.207031 13.675781 C 50.613281 12.253906 51.375 11.0625 52.496094 10.097656 C 56.457031 6.992188 60.800781 6.308594 65.535156 8.039062 C 67.445312 9.21875 68.078125 10.902344 67.429688 13.089844 C 67.007812 14.417969 66.277344 15.546875 65.242188 16.46875 C 64.371094 17.152344 63.445312 17.757812 62.46875 18.285156 C 62.476562 18.59375 62.621094 18.835938 62.90625 19.019531 C 63.171875 19.09375 63.398438 19.027344 63.585938 18.824219 C 64.222656 18.148438 64.824219 17.445312 65.386719 16.714844 C 66.128906 15.933594 66.957031 15.265625 67.867188 14.707031 C 68.292969 14.542969 68.730469 14.460938 69.183594 14.460938 C 70.183594 14.707031 71.207031 14.855469 72.246094 14.902344 C 73 15.171875 73.535156 15.675781 73.851562 16.421875 C 73.96875 16.042969 74.035156 15.648438 74.046875 15.246094 C 74.15625 15.035156 74.300781 14.855469 74.484375 14.707031 C 75.820312 14.503906 77.050781 14.765625 78.183594 15.488281 C 78.5625 15.90625 78.902344 16.347656 79.203125 16.8125 C 79.707031 16.375 80.207031 15.933594 80.710938 15.488281 C 81.480469 14.875 82.355469 14.53125 83.339844 14.460938 C 84.269531 14.664062 85.210938 14.8125 86.160156 14.902344 C 87.300781 15.203125 87.886719 15.953125 87.914062 17.15625 C 87.851562 17.632812 87.789062 18.105469 87.71875 18.578125 Z M 61.835938 10.539062 C 62.054688 10.75 62.199219 11.011719 62.273438 11.324219 C 62.34375 11.089844 62.328125 10.859375 62.226562 10.636719 C 62.101562 10.472656 61.972656 10.4375 61.835938 10.539062 Z M 79.351562 15.636719 C 79.335938 15.710938 79.355469 15.773438 79.398438 15.832031 C 79.609375 15.703125 79.59375 15.636719 79.351562 15.636719 Z M 55.609375 23.578125 C 54.9375 24.570312 54.289062 25.582031 53.664062 26.617188 C 54.078125 26.714844 54.5 26.746094 54.925781 26.714844 C 55.15625 25.667969 55.382812 24.625 55.609375 23.578125 Z M 32.644531 26.519531 C 32.164062 26.925781 31.679688 27.335938 31.183594 27.746094 C 31.800781 27.808594 32.417969 27.808594 33.035156 27.746094 C 32.898438 27.328125 32.769531 26.921875 32.644531 26.519531 Z M 37.21875 27.109375 C 37.1875 27.3125 37.222656 27.511719 37.316406 27.695312 C 37.40625 27.480469 37.375 27.285156 37.21875 27.109375 Z M 37.21875 27.109375 "/>
<path style=" stroke:none;fill-rule:evenodd;fill:rgb(73.333333%,20.392157%,15.294118%);fill-opacity:1;" d="M 63.003906 8.285156 C 61.640625 8.285156 60.277344 8.285156 58.917969 8.285156 C 59.507812 8.132812 60.125 8.066406 60.765625 8.089844 C 61.53125 8.078125 62.277344 8.140625 63.003906 8.285156 Z M 63.003906 8.285156 "/>
<path style=" stroke:none;fill-rule:evenodd;fill:rgb(67.843137%,7.058824%,1.960784%);fill-opacity:1;" d="M 58.917969 8.285156 C 60.277344 8.285156 61.640625 8.285156 63.003906 8.285156 C 66.453125 8.867188 67.476562 10.761719 66.070312 13.96875 C 65.265625 15.238281 64.210938 16.234375 62.90625 16.960938 C 62.121094 17.324219 61.328125 17.664062 60.523438 17.988281 C 60.457031 18.121094 60.457031 18.25 60.523438 18.382812 C 60.859375 18.601562 61.152344 18.859375 61.398438 19.167969 C 61.460938 19.394531 61.460938 19.625 61.398438 19.851562 C 60.46875 21.660156 59.59375 23.488281 58.769531 25.34375 C 58.722656 25.703125 58.707031 26.0625 58.722656 26.421875 C 58.984375 26.4375 59.242188 26.421875 59.5 26.371094 C 61.550781 24.898438 62.796875 22.921875 63.246094 20.441406 C 64.683594 18.992188 66.128906 17.539062 67.578125 16.078125 C 68.039062 15.695312 68.574219 15.480469 69.183594 15.441406 C 69.644531 15.542969 70.097656 15.671875 70.542969 15.832031 C 72.121094 15.558594 72.867188 16.214844 72.78125 17.792969 C 72.617188 18.558594 72.40625 19.3125 72.148438 20.050781 C 71.820312 20.550781 71.53125 21.074219 71.273438 21.617188 C 71.121094 21.902344 70.929688 22.164062 70.691406 22.402344 C 70.464844 22.53125 70.335938 22.726562 70.300781 22.988281 C 70.234375 23.023438 70.171875 23.054688 70.105469 23.089844 C 69.777344 23.242188 69.648438 23.503906 69.71875 23.871094 C 69.996094 23.902344 70.257812 23.871094 70.496094 23.773438 C 70.527344 23.773438 70.5625 23.773438 70.59375 23.773438 C 71.328125 23.328125 71.847656 22.707031 72.148438 21.910156 C 72.464844 21.304688 72.527344 20.648438 72.34375 19.949219 C 72.636719 19.96875 72.929688 19.949219 73.21875 19.902344 C 73.398438 19.722656 73.578125 19.542969 73.753906 19.363281 C 74.300781 18.140625 74.871094 16.933594 75.457031 15.734375 C 75.535156 15.691406 75.617188 15.660156 75.703125 15.636719 C 76.296875 15.863281 76.894531 16.074219 77.5 16.273438 C 77.730469 16.355469 77.925781 16.488281 78.085938 16.667969 C 76.414062 19.132812 74.859375 21.667969 73.414062 24.265625 C 73.242188 24.523438 73.078125 24.800781 72.929688 25.097656 C 72.960938 25.148438 72.992188 25.195312 73.027344 25.246094 C 73.257812 25.074219 73.484375 24.910156 73.707031 24.753906 C 73.804688 24.691406 73.902344 24.625 74 24.558594 C 74.347656 24.371094 74.640625 24.109375 74.875 23.773438 C 75.617188 22.976562 76.3125 22.128906 76.964844 21.226562 C 77.042969 20.957031 77.140625 20.695312 77.257812 20.441406 C 77.746094 19.910156 78.28125 19.4375 78.863281 19.019531 C 79.707031 18.105469 80.550781 17.191406 81.394531 16.273438 C 81.703125 16.101562 81.992188 15.90625 82.269531 15.6875 C 82.582031 15.554688 82.90625 15.472656 83.242188 15.441406 C 83.714844 15.5625 84.183594 15.691406 84.652344 15.832031 C 85.445312 15.652344 86.128906 15.851562 86.695312 16.421875 C 86.835938 16.683594 86.917969 16.960938 86.941406 17.253906 C 86.738281 18.195312 86.492188 19.128906 86.210938 20.050781 C 85.402344 21.238281 84.640625 22.445312 83.921875 23.675781 C 83.871094 23.683594 83.839844 23.714844 83.824219 23.773438 C 84.390625 23.988281 84.84375 23.859375 85.1875 23.382812 C 85.480469 22.960938 85.804688 22.566406 86.160156 22.207031 C 86.359375 22.101562 86.488281 21.9375 86.550781 21.714844 C 86.648438 21.164062 86.679688 20.609375 86.648438 20.050781 C 87.296875 20.050781 87.945312 20.050781 88.59375 20.050781 C 88.300781 21.210938 87.71875 22.207031 86.84375 23.039062 C 85.640625 24.003906 84.277344 24.59375 82.753906 24.804688 C 81.648438 25.691406 80.511719 26.542969 79.351562 27.351562 C 78.554688 27.703125 77.746094 27.769531 76.917969 27.550781 C 76.621094 27.226562 76.410156 26.851562 76.285156 26.421875 C 76.21875 25.828125 76.234375 25.242188 76.332031 24.65625 C 76.539062 23.746094 76.34375 23.648438 75.75 24.363281 C 73.164062 25.773438 71.136719 27.769531 69.667969 30.34375 C 68.351562 31.929688 66.679688 32.601562 64.65625 32.351562 C 64.121094 32.105469 63.746094 31.695312 63.539062 31.128906 C 63.457031 29.742188 64.023438 28.710938 65.242188 28.039062 C 66.160156 27.800781 66.871094 28.078125 67.382812 28.871094 C 67.269531 29.035156 67.140625 29.179688 66.992188 29.3125 C 66.207031 29.679688 65.574219 30.21875 65.09375 30.929688 C 65.046875 31.125 65.03125 31.320312 65.046875 31.519531 C 66.058594 31.589844 66.851562 31.199219 67.429688 30.34375 C 68.535156 28.644531 69.636719 26.945312 70.738281 25.246094 C 70.988281 24.609375 70.761719 24.378906 70.058594 24.558594 C 69.648438 24.566406 69.242188 24.613281 68.839844 24.707031 C 67.789062 25.546875 66.71875 26.363281 65.628906 27.15625 C 64.898438 27.554688 64.117188 27.753906 63.296875 27.746094 C 62.890625 27.597656 62.613281 27.320312 62.46875 26.910156 C 62.324219 26.496094 62.226562 26.074219 62.175781 25.636719 C 62.105469 25.582031 62.023438 25.550781 61.933594 25.539062 C 61.496094 25.898438 61.042969 26.242188 60.570312 26.570312 C 60.050781 26.832031 59.53125 27.089844 59.015625 27.351562 C 57.058594 28.171875 56.261719 27.535156 56.628906 25.441406 C 57.203125 23.644531 57.851562 21.882812 58.574219 20.148438 C 58.980469 18.792969 58.511719 18.253906 57.164062 18.53125 C 56.957031 18.640625 56.78125 18.785156 56.628906 18.96875 C 54.632812 21.730469 52.847656 24.605469 51.277344 27.597656 C 50.878906 27.449219 50.667969 27.15625 50.644531 26.714844 C 50.792969 25.988281 50.972656 25.265625 51.179688 24.558594 C 53.125 20.902344 55.167969 17.308594 57.3125 13.773438 C 57.8125 12.800781 58.234375 11.785156 58.574219 10.734375 C 58.65625 10.609375 58.769531 10.542969 58.917969 10.539062 C 59.667969 10.722656 60.300781 11.113281 60.8125 11.714844 C 60.992188 12.074219 60.992188 12.433594 60.8125 12.792969 C 59.90625 14.101562 58.996094 15.410156 58.089844 16.714844 C 57.898438 16.984375 57.785156 17.28125 57.75 17.597656 C 58.042969 17.613281 58.335938 17.597656 58.625 17.550781 C 61.703125 16.359375 63.457031 14.121094 63.878906 10.832031 C 63.710938 9.699219 63.0625 9.03125 61.933594 8.824219 C 57.929688 8.578125 55.253906 10.359375 53.90625 14.167969 C 53.816406 14.886719 53.71875 15.605469 53.613281 16.324219 C 53.578125 16.414062 53.527344 16.496094 53.46875 16.570312 C 51.9375 16.824219 51.125 16.167969 51.035156 14.609375 C 51.242188 13.050781 51.953125 11.773438 53.175781 10.785156 C 54.855469 9.414062 56.769531 8.582031 58.917969 8.285156 Z M 61.835938 10.539062 C 62.054688 10.75 62.199219 11.011719 62.273438 11.324219 C 62.34375 11.089844 62.328125 10.859375 62.226562 10.636719 C 62.101562 10.472656 61.972656 10.4375 61.835938 10.539062 Z M 79.351562 15.636719 C 79.335938 15.710938 79.355469 15.773438 79.398438 15.832031 C 79.609375 15.703125 79.59375 15.636719 79.351562 15.636719 Z M 55.609375 23.578125 C 54.9375 24.570312 54.289062 25.582031 53.664062 26.617188 C 54.078125 26.714844 54.5 26.746094 54.925781 26.714844 C 55.15625 25.667969 55.382812 24.625 55.609375 23.578125 Z M 55.609375 23.578125 "/>
<path style=" stroke:none;fill-rule:evenodd;fill:rgb(97.254902%,96.078431%,95.686275%);fill-opacity:1;" d="M 79.351562 9.558594 C 80.386719 9.453125 81.246094 9.78125 81.929688 10.539062 C 82.269531 11.289062 82.203125 12.007812 81.734375 12.695312 C 81.203125 13.394531 80.636719 14.066406 80.03125 14.707031 C 78.769531 15.335938 77.878906 14.992188 77.355469 13.675781 C 77.085938 12.269531 77.425781 11.042969 78.378906 10 C 78.707031 9.839844 79.03125 9.695312 79.351562 9.558594 Z M 79.351562 9.558594 "/>
<use xlink:href="#surface8" mask="url(#mask1)"/>
<path style=" stroke:none;fill-rule:evenodd;fill:rgb(68.235294%,8.235294%,3.137255%);fill-opacity:1;" d="M 79.351562 10.636719 C 81.339844 10.53125 81.714844 11.25 80.46875 12.792969 C 80.128906 13.136719 79.789062 13.480469 79.449219 13.824219 C 79.085938 14.0625 78.777344 14.011719 78.523438 13.675781 C 78.074219 12.742188 78.171875 11.859375 78.816406 11.03125 C 79.011719 10.910156 79.191406 10.78125 79.351562 10.636719 Z M 79.351562 10.636719 "/>
<path style=" stroke:none;fill-rule:evenodd;fill:rgb(5.882353%,5.882353%,5.882353%);fill-opacity:1;" d="M 57.164062 11.03125 C 57.277344 11.058594 57.34375 11.140625 57.359375 11.273438 C 57.234375 11.6875 57.085938 12.097656 56.921875 12.5 C 56.289062 13.773438 55.609375 15.015625 54.878906 16.226562 C 54.710938 15.953125 54.597656 15.660156 54.539062 15.34375 C 54.824219 13.523438 55.699219 12.085938 57.164062 11.03125 Z M 57.164062 11.03125 "/>
<path style=" stroke:none;fill-rule:evenodd;fill:rgb(87.058824%,60.784314%,54.509804%);fill-opacity:1;" d="M 19.21875 13.578125 C 19.160156 13.800781 19.03125 13.960938 18.828125 14.070312 C 18.882812 13.847656 19.015625 13.683594 19.21875 13.578125 Z M 19.21875 13.578125 "/>
<path style=" stroke:none;fill-rule:evenodd;fill:rgb(38.823529%,38.823529%,38.823529%);fill-opacity:1;" d="M 60.277344 15.148438 C 60.261719 15.246094 60.292969 15.308594 60.375 15.34375 C 60.296875 15.5625 60.167969 15.628906 59.988281 15.539062 C 60.085938 15.402344 60.183594 15.269531 60.277344 15.148438 Z M 60.277344 15.148438 "/>
<path style=" stroke:none;fill-rule:evenodd;fill:rgb(67.843137%,7.843137%,1.960784%);fill-opacity:1;" d="M 19.21875 13.578125 C 19.015625 13.683594 18.882812 13.847656 18.828125 14.070312 C 16.898438 16.777344 15.066406 19.554688 13.332031 22.402344 C 12.761719 23.332031 12.261719 24.296875 11.820312 25.292969 C 11.832031 25.402344 11.863281 25.5 11.917969 25.589844 C 13.085938 25.914062 14.253906 26.242188 15.421875 26.570312 C 16.203125 26.640625 16.984375 26.625 17.757812 26.519531 C 17.351562 24.546875 17.675781 22.714844 18.730469 21.03125 C 18.816406 21.042969 18.882812 21.007812 18.925781 20.929688 C 19.019531 20.644531 19.148438 20.382812 19.316406 20.148438 C 19.300781 20.042969 19.316406 19.945312 19.363281 19.851562 C 21.046875 17.53125 23.269531 16.046875 26.027344 15.390625 C 26.5625 15.074219 27.082031 14.730469 27.585938 14.363281 C 28.148438 14.160156 28.714844 14.09375 29.289062 14.167969 C 28.480469 16.027344 27.585938 17.855469 26.613281 19.65625 C 25.945312 20.6875 25.132812 21.605469 24.179688 22.402344 C 23.011719 23.097656 21.746094 23.539062 20.386719 23.726562 C 20.035156 23.914062 19.792969 24.191406 19.65625 24.558594 C 19.542969 25.273438 19.605469 25.957031 19.851562 26.617188 C 20.441406 27.089844 21.074219 27.140625 21.746094 26.765625 C 24.015625 25.476562 25.636719 23.628906 26.613281 21.226562 C 26.773438 21.035156 26.839844 20.808594 26.808594 20.539062 C 27.046875 20.082031 27.40625 19.738281 27.878906 19.511719 C 28.253906 18.921875 28.710938 18.417969 29.238281 17.988281 C 29.441406 17.882812 29.570312 17.71875 29.628906 17.5 C 30.285156 16.621094 31.097656 15.953125 32.0625 15.488281 C 32.449219 15.425781 32.839844 15.425781 33.230469 15.488281 C 33.808594 15.832031 34.425781 15.929688 35.078125 15.785156 C 35.859375 15.898438 36.3125 16.339844 36.441406 17.109375 C 36.082031 18.535156 35.578125 19.910156 34.929688 21.226562 C 34.523438 21.964844 34.035156 22.652344 33.472656 23.285156 C 33.4375 23.453125 33.390625 23.617188 33.324219 23.773438 C 33.441406 23.808594 33.554688 23.839844 33.667969 23.871094 C 33.957031 23.8125 34.234375 23.695312 34.492188 23.53125 C 35.078125 22.972656 35.550781 22.335938 35.90625 21.617188 C 35.9375 21.128906 35.96875 20.636719 36 20.148438 C 36.324219 19.996094 36.664062 19.882812 37.023438 19.804688 C 37.605469 19.007812 38.074219 18.144531 38.433594 17.207031 C 38.558594 16.640625 38.707031 16.085938 38.871094 15.539062 C 39.027344 15.429688 39.1875 15.410156 39.359375 15.488281 C 40.105469 15.851562 40.886719 16.128906 41.695312 16.324219 C 41.664062 16.628906 41.566406 16.90625 41.402344 17.15625 C 41.433594 17.207031 41.46875 17.253906 41.5 17.304688 C 42.214844 16.714844 42.960938 16.175781 43.738281 15.6875 C 44.941406 15.308594 45.882812 15.667969 46.558594 16.765625 C 44.28125 19.445312 42.382812 22.371094 40.867188 25.539062 C 40.757812 25.890625 40.710938 26.25 40.722656 26.617188 C 41.445312 26.652344 42.011719 26.359375 42.425781 25.734375 C 43.371094 24.445312 44.246094 23.105469 45.050781 21.714844 C 45.078125 21.109375 45.222656 20.539062 45.488281 20 C 46.039062 19.933594 46.589844 19.933594 47.144531 20 C 47.234375 20.039062 47.296875 20.101562 47.335938 20.195312 C 46.28125 22.371094 44.917969 24.332031 43.25 26.078125 C 42.65625 26.613281 42.007812 27.070312 41.304688 27.449219 C 39.40625 28.105469 38.546875 27.4375 38.726562 25.441406 C 38.804688 25.148438 38.867188 24.855469 38.921875 24.558594 C 39.273438 23.847656 39.632812 23.128906 39.992188 22.402344 C 41.085938 20.683594 42.15625 18.953125 43.203125 17.207031 C 43.261719 17.109375 43.226562 17.042969 43.105469 17.011719 C 42.207031 17.617188 41.398438 18.335938 40.671875 19.167969 C 39.042969 21.113281 37.582031 23.171875 36.292969 25.34375 C 35.949219 26.058594 35.640625 26.792969 35.371094 27.550781 C 35.167969 27.617188 34.972656 27.601562 34.785156 27.5 C 34.621094 27.316406 34.476562 27.121094 34.347656 26.910156 C 34.371094 26.085938 34.449219 25.269531 34.589844 24.460938 C 33.800781 24.425781 33.019531 24.507812 32.253906 24.707031 C 31.316406 25.457031 30.375 26.210938 29.433594 26.960938 C 28.609375 27.527344 27.703125 27.753906 26.710938 27.648438 C 26.179688 27.339844 25.855469 26.902344 25.738281 26.324219 C 25.738281 25.832031 25.738281 25.34375 25.738281 24.851562 C 25.554688 24.828125 25.425781 24.890625 25.347656 25.050781 C 24.367188 25.984375 23.261719 26.753906 22.039062 27.351562 C 20.675781 27.867188 19.378906 27.75 18.148438 27.011719 C 17.644531 27.53125 17.09375 28.003906 16.492188 28.429688 C 15.964844 28.707031 15.398438 28.855469 14.789062 28.871094 C 14.089844 28.714844 13.390625 28.535156 12.699219 28.332031 C 11.496094 27.828125 10.296875 27.335938 9.097656 26.863281 C 8.234375 26.65625 7.375 26.671875 6.519531 26.910156 C 6.46875 26.878906 6.421875 26.847656 6.375 26.8125 C 7.089844 25.976562 8 25.503906 9.097656 25.390625 C 9.617188 25.34375 10.132812 25.328125 10.65625 25.34375 C 10.609375 24.578125 10.691406 23.824219 10.898438 23.089844 C 11.15625 22.5 11.417969 21.910156 11.675781 21.324219 C 13.265625 18.707031 14.855469 16.089844 16.445312 13.480469 C 17.296875 11.796875 18.171875 10.128906 19.070312 8.480469 C 19.179688 8.320312 19.324219 8.222656 19.507812 8.1875 C 20.324219 8.449219 21.136719 8.726562 21.941406 9.019531 C 21.992188 9.074219 22.023438 9.140625 22.039062 9.214844 C 21.109375 10.683594 20.167969 12.136719 19.21875 13.578125 Z M 37.21875 27.109375 C 37.1875 27.3125 37.222656 27.511719 37.316406 27.695312 C 37.40625 27.480469 37.375 27.285156 37.21875 27.109375 Z M 37.21875 27.109375 "/>
<path style=" stroke:none;fill-rule:evenodd;fill:rgb(88.627451%,64.705882%,57.254902%);fill-opacity:1;" d="M 25.25 17.109375 C 25.21875 16.957031 25.121094 16.890625 24.957031 16.910156 C 25.054688 16.75 25.183594 16.621094 25.347656 16.519531 C 25.46875 16.746094 25.4375 16.941406 25.25 17.109375 Z M 25.25 17.109375 "/>
<path style=" stroke:none;fill-rule:evenodd;fill:rgb(97.647059%,94.901961%,94.509804%);fill-opacity:1;" d="M 32.160156 20.636719 C 32.097656 20.648438 32.050781 20.679688 32.011719 20.734375 C 31.90625 21.417969 31.824219 22.105469 31.769531 22.792969 C 31.621094 23.320312 31.445312 23.84375 31.234375 24.363281 C 30.488281 25.34375 29.597656 26.144531 28.558594 26.765625 C 27.632812 27.011719 27.292969 26.667969 27.535156 25.734375 C 28.15625 23.828125 29.082031 22.097656 30.308594 20.539062 C 30.542969 20.363281 30.707031 20.132812 30.796875 19.851562 C 31.550781 18.683594 32.492188 17.6875 33.617188 16.863281 C 33.742188 16.816406 33.875 16.796875 34.007812 16.8125 C 34.03125 16.957031 34 17.089844 33.910156 17.207031 C 33.472656 17.886719 33.035156 18.574219 32.597656 19.265625 C 32.421875 19.714844 32.273438 20.171875 32.160156 20.636719 Z M 32.160156 20.636719 "/>
<path style=" stroke:none;fill-rule:evenodd;fill:rgb(98.823529%,96.078431%,95.686275%);fill-opacity:1;" d="M 24.957031 16.910156 C 25.121094 16.890625 25.21875 16.957031 25.25 17.109375 C 25.207031 17.542969 25.109375 17.96875 24.957031 18.382812 C 24.742188 18.707031 24.578125 19.066406 24.472656 19.460938 C 24.238281 19.671875 24.074219 19.933594 23.984375 20.246094 C 23.722656 20.546875 23.496094 20.875 23.304688 21.226562 C 22.945312 21.519531 22.621094 21.847656 22.332031 22.207031 C 21.96875 22.359375 21.644531 22.570312 21.359375 22.84375 C 21.023438 22.90625 20.699219 22.988281 20.386719 23.089844 C 20.582031 22.398438 20.90625 21.78125 21.359375 21.226562 C 21.746094 20.972656 21.972656 20.613281 22.039062 20.148438 C 22.070312 20.148438 22.105469 20.148438 22.136719 20.148438 C 22.46875 19.839844 22.726562 19.480469 22.914062 19.070312 C 23.460938 18.226562 24.140625 17.507812 24.957031 16.910156 Z M 24.957031 16.910156 "/>
<path style=" stroke:none;fill-rule:evenodd;fill:rgb(98.039216%,95.686275%,95.294118%);fill-opacity:1;" d="M 69.035156 19.65625 C 68.476562 20.75 68.183594 21.929688 68.160156 23.1875 C 68.015625 23.421875 67.917969 23.683594 67.867188 23.96875 C 67.375 24.367188 66.953125 24.824219 66.605469 25.34375 C 66.046875 25.839844 65.464844 26.296875 64.851562 26.714844 C 64.59375 26.714844 64.332031 26.714844 64.074219 26.714844 C 64.097656 26.589844 64.0625 26.492188 63.976562 26.421875 C 63.960938 26.09375 63.976562 25.765625 64.023438 25.441406 C 64.464844 24.386719 64.96875 23.375 65.535156 22.402344 C 65.671875 22.355469 65.734375 22.257812 65.726562 22.109375 C 66.375 21.113281 67.039062 20.132812 67.722656 19.167969 C 68.226562 18.59375 68.726562 18.023438 69.230469 17.449219 C 70.488281 16.503906 70.667969 16.648438 69.765625 17.890625 C 69.550781 18.488281 69.308594 19.078125 69.035156 19.65625 Z M 69.035156 19.65625 "/>
<path style=" stroke:none;fill-rule:evenodd;fill:rgb(97.647059%,94.901961%,94.901961%);fill-opacity:1;" d="M 82.753906 20.636719 C 82.601562 20.832031 82.484375 21.058594 82.414062 21.324219 C 82.308594 22.074219 82.230469 22.824219 82.171875 23.578125 C 82.089844 23.691406 82.023438 23.824219 81.976562 23.96875 C 81.800781 24.132812 81.667969 24.328125 81.589844 24.558594 C 81.1875 25.011719 80.765625 25.453125 80.324219 25.882812 C 79.933594 26.144531 79.542969 26.40625 79.15625 26.667969 C 78.199219 26.941406 77.855469 26.597656 78.132812 25.636719 C 78.1875 25.292969 78.28125 24.964844 78.425781 24.65625 C 78.921875 23.800781 79.375 22.917969 79.789062 22.011719 C 79.976562 21.78125 80.15625 21.550781 80.324219 21.324219 C 80.417969 21.277344 80.496094 21.214844 80.566406 21.128906 C 80.675781 20.9375 80.757812 20.742188 80.808594 20.539062 C 80.972656 20.328125 81.132812 20.132812 81.296875 19.949219 C 81.5 19.84375 81.628906 19.679688 81.683594 19.460938 C 81.742188 19.289062 81.820312 19.125 81.929688 18.96875 C 82.320312 18.609375 82.679688 18.214844 83 17.792969 C 83.394531 17.410156 83.832031 17.082031 84.3125 16.8125 C 84.421875 16.933594 84.4375 17.0625 84.359375 17.207031 C 83.714844 18.296875 83.179688 19.441406 82.753906 20.636719 Z M 82.753906 20.636719 "/>
<path style=" stroke:none;fill-rule:evenodd;fill:rgb(82.352941%,47.058824%,39.215686%);fill-opacity:1;" d="M 29.628906 17.5 C 29.570312 17.71875 29.441406 17.882812 29.238281 17.988281 C 29.296875 17.769531 29.425781 17.605469 29.628906 17.5 Z M 29.628906 17.5 "/>
<path style=" stroke:none;fill-rule:evenodd;fill:rgb(65.098039%,65.098039%,65.098039%);fill-opacity:1;" d="M 46.171875 18.773438 C 46.171875 18.871094 46.171875 18.96875 46.171875 19.070312 C 46.546875 19.039062 46.902344 19.070312 47.242188 19.167969 C 46.851562 19.167969 46.460938 19.167969 46.074219 19.167969 C 46.046875 19.011719 46.078125 18.878906 46.171875 18.773438 Z M 46.171875 18.773438 "/>
<path style=" stroke:none;fill-rule:evenodd;fill:rgb(65.490196%,65.490196%,65.490196%);fill-opacity:1;" d="M 87.71875 18.578125 C 87.71875 18.742188 87.71875 18.90625 87.71875 19.070312 C 88.128906 19.039062 88.515625 19.070312 88.886719 19.167969 C 88.464844 19.167969 88.042969 19.167969 87.621094 19.167969 C 87.59375 18.949219 87.625 18.75 87.71875 18.578125 Z M 87.71875 18.578125 "/>
<path style=" stroke:none;fill-rule:evenodd;fill:rgb(77.647059%,34.117647%,27.058824%);fill-opacity:1;" d="M 24.957031 18.382812 C 24.859375 18.707031 24.765625 19.035156 24.667969 19.363281 C 24.601562 19.398438 24.535156 19.429688 24.472656 19.460938 C 24.578125 19.066406 24.742188 18.707031 24.957031 18.382812 Z M 24.957031 18.382812 "/>
<use xlink:href="#surface11" mask="url(#mask2)"/>
<path style=" stroke:none;fill-rule:evenodd;fill:rgb(89.803922%,68.627451%,65.882353%);fill-opacity:1;" d="M 22.914062 19.070312 C 22.726562 19.480469 22.46875 19.839844 22.136719 20.148438 C 22.320312 19.730469 22.582031 19.371094 22.914062 19.070312 Z M 22.914062 19.070312 "/>
<path style=" stroke:none;fill-rule:evenodd;fill:rgb(87.45098%,62.352941%,60%);fill-opacity:1;" d="M 81.683594 19.460938 C 81.628906 19.679688 81.5 19.84375 81.296875 19.949219 C 81.351562 19.730469 81.480469 19.566406 81.683594 19.460938 Z M 81.683594 19.460938 "/>
<path style=" stroke:none;fill-rule:evenodd;fill:rgb(82.745098%,46.666667%,40.784314%);fill-opacity:1;" d="M 24.472656 19.460938 C 24.378906 19.773438 24.21875 20.03125 23.984375 20.246094 C 24.074219 19.933594 24.238281 19.671875 24.472656 19.460938 Z M 24.472656 19.460938 "/>
<path style=" stroke:none;fill-rule:evenodd;fill:rgb(78.039216%,34.117647%,28.235294%);fill-opacity:1;" d="M 19.316406 20.148438 C 19.148438 20.382812 19.019531 20.644531 18.925781 20.929688 C 18.882812 21.007812 18.816406 21.042969 18.730469 21.03125 C 18.820312 20.660156 19.015625 20.367188 19.316406 20.148438 Z M 19.316406 20.148438 "/>
<path style=" stroke:none;fill-rule:evenodd;fill:rgb(74.901961%,25.882353%,21.176471%);fill-opacity:1;" d="M 86.648438 20.050781 C 86.679688 20.609375 86.648438 21.164062 86.550781 21.714844 C 86.488281 21.9375 86.359375 22.101562 86.160156 22.207031 C 86.484375 21.589844 86.582031 20.9375 86.453125 20.246094 C 86.476562 20.125 86.542969 20.0625 86.648438 20.050781 Z M 86.648438 20.050781 "/>
<path style=" stroke:none;fill-rule:evenodd;fill:rgb(87.45098%,61.176471%,58.039216%);fill-opacity:1;" d="M 30.796875 19.851562 C 30.707031 20.132812 30.542969 20.363281 30.308594 20.539062 C 30.402344 20.257812 30.5625 20.027344 30.796875 19.851562 Z M 30.796875 19.851562 "/>
<path style=" stroke:none;fill-rule:evenodd;fill:rgb(75.294118%,27.843137%,21.960784%);fill-opacity:1;" d="M 82.753906 20.636719 C 82.804688 20.742188 82.839844 20.855469 82.851562 20.980469 C 82.710938 21.070312 82.597656 21.25 82.511719 21.519531 C 82.464844 22.246094 82.351562 22.929688 82.171875 23.578125 C 82.230469 22.824219 82.308594 22.074219 82.414062 21.324219 C 82.484375 21.058594 82.601562 20.832031 82.753906 20.636719 Z M 82.753906 20.636719 "/>
<path style=" stroke:none;fill-rule:evenodd;fill:rgb(91.372549%,72.941176%,70.196078%);fill-opacity:1;" d="M 22.039062 20.148438 C 21.972656 20.613281 21.746094 20.972656 21.359375 21.226562 C 21.570312 20.855469 21.796875 20.496094 22.039062 20.148438 Z M 22.039062 20.148438 "/>
<path style=" stroke:none;fill-rule:evenodd;fill:rgb(87.843137%,62.745098%,59.607843%);fill-opacity:1;" d="M 26.808594 20.539062 C 26.839844 20.808594 26.773438 21.035156 26.613281 21.226562 C 26.632812 20.972656 26.699219 20.746094 26.808594 20.539062 Z M 26.808594 20.539062 "/>
<path style=" stroke:none;fill-rule:evenodd;fill:rgb(10.588235%,10.588235%,10.588235%);fill-opacity:1;" d="M 61.933594 20.832031 C 62.042969 20.863281 62.109375 20.945312 62.128906 21.078125 C 61.800781 22.40625 61.136719 23.535156 60.132812 24.460938 C 60.066406 24.363281 60.066406 24.265625 60.132812 24.167969 C 60.757812 23.070312 61.359375 21.960938 61.933594 20.832031 Z M 61.933594 20.832031 "/>
<path style=" stroke:none;fill-rule:evenodd;fill:rgb(76.862745%,30.980392%,25.882353%);fill-opacity:1;" d="M 69.035156 19.65625 C 68.855469 20.121094 68.742188 20.613281 68.695312 21.128906 C 68.605469 21.207031 68.542969 21.308594 68.5 21.421875 C 68.429688 21.976562 68.363281 22.53125 68.304688 23.089844 C 68.269531 23.144531 68.21875 23.175781 68.160156 23.1875 C 68.183594 21.929688 68.476562 20.75 69.035156 19.65625 Z M 69.035156 19.65625 "/>
<path style=" stroke:none;fill-rule:evenodd;fill:rgb(88.627451%,66.27451%,64.313725%);fill-opacity:1;" d="M 72.148438 20.050781 C 72.03125 20.417969 71.886719 20.777344 71.710938 21.128906 C 71.625 21.351562 71.480469 21.511719 71.273438 21.617188 C 71.53125 21.074219 71.820312 20.550781 72.148438 20.050781 Z M 72.148438 20.050781 "/>
<path style=" stroke:none;fill-rule:evenodd;fill:rgb(86.27451%,56.078431%,53.72549%);fill-opacity:1;" d="M 80.808594 20.539062 C 80.757812 20.742188 80.675781 20.9375 80.566406 21.128906 C 80.496094 21.214844 80.417969 21.277344 80.324219 21.324219 C 80.414062 21.015625 80.578125 20.753906 80.808594 20.539062 Z M 80.808594 20.539062 "/>
<path style=" stroke:none;fill-rule:evenodd;fill:rgb(90.588235%,70.588235%,68.235294%);fill-opacity:1;" d="M 26.613281 19.65625 C 26.078125 20.816406 25.269531 21.730469 24.179688 22.402344 C 25.132812 21.605469 25.945312 20.6875 26.613281 19.65625 Z M 26.613281 19.65625 "/>
<path style=" stroke:none;fill-rule:evenodd;fill:rgb(6.27451%,6.27451%,6.27451%);fill-opacity:1;" d="M 30.796875 21.226562 C 31.066406 22.933594 30.480469 24.324219 29.042969 25.390625 C 28.894531 25.492188 28.734375 25.539062 28.558594 25.539062 C 28.554688 25.253906 28.636719 24.992188 28.800781 24.753906 C 29.449219 23.5625 30.113281 22.386719 30.796875 21.226562 Z M 30.796875 21.226562 "/>
<path style=" stroke:none;fill-rule:evenodd;fill:rgb(79.215686%,37.254902%,31.372549%);fill-opacity:1;" d="M 23.304688 21.226562 C 23.078125 21.648438 22.753906 21.976562 22.332031 22.207031 C 22.621094 21.847656 22.945312 21.519531 23.304688 21.226562 Z M 23.304688 21.226562 "/>
<path style=" stroke:none;fill-rule:evenodd;fill:rgb(7.058824%,7.058824%,7.058824%);fill-opacity:1;" d="M 81.296875 21.226562 C 81.679688 23.136719 80.964844 24.507812 79.15625 25.34375 C 79.066406 25.214844 79.082031 25.085938 79.203125 24.949219 C 79.929688 23.71875 80.625 22.476562 81.296875 21.226562 Z M 81.296875 21.226562 "/>
<path style=" stroke:none;fill-rule:evenodd;fill:rgb(6.27451%,6.27451%,6.27451%);fill-opacity:1;" d="M 67.089844 21.519531 C 67.160156 21.5625 67.207031 21.625 67.234375 21.714844 C 67.355469 23.144531 66.855469 24.304688 65.726562 25.195312 C 65.53125 25.378906 65.304688 25.496094 65.046875 25.539062 C 65.597656 24.132812 66.277344 22.792969 67.089844 21.519531 Z M 67.089844 21.519531 "/>
<path style=" stroke:none;fill-rule:evenodd;fill:rgb(84.313725%,50.980392%,48.235294%);fill-opacity:1;" d="M 65.726562 22.109375 C 65.734375 22.257812 65.671875 22.355469 65.535156 22.402344 C 65.527344 22.253906 65.589844 22.152344 65.726562 22.109375 Z M 65.726562 22.109375 "/>
<path style=" stroke:none;fill-rule:evenodd;fill:rgb(76.862745%,30.588235%,25.098039%);fill-opacity:1;" d="M 32.160156 20.636719 C 32.066406 21.378906 31.9375 22.097656 31.769531 22.792969 C 31.824219 22.105469 31.90625 21.417969 32.011719 20.734375 C 32.050781 20.679688 32.097656 20.648438 32.160156 20.636719 Z M 32.160156 20.636719 "/>
<path style=" stroke:none;fill-rule:evenodd;fill:rgb(85.098039%,54.117647%,52.156863%);fill-opacity:1;" d="M 70.691406 22.402344 C 70.65625 22.667969 70.527344 22.863281 70.300781 22.988281 C 70.335938 22.726562 70.464844 22.53125 70.691406 22.402344 Z M 70.691406 22.402344 "/>
<path style=" stroke:none;fill-rule:evenodd;fill:rgb(81.176471%,43.137255%,39.607843%);fill-opacity:1;" d="M 72.148438 21.910156 C 71.847656 22.707031 71.328125 23.328125 70.59375 23.773438 C 70.59375 23.742188 70.59375 23.710938 70.59375 23.675781 C 71.160156 23.109375 71.675781 22.519531 72.148438 21.910156 Z M 72.148438 21.910156 "/>
<path style=" stroke:none;fill-rule:evenodd;fill:rgb(42.745098%,42.745098%,42.745098%);fill-opacity:1;" d="M 23.691406 23.675781 C 23.890625 23.542969 24.085938 23.558594 24.277344 23.726562 C 24.222656 23.796875 24.160156 23.84375 24.082031 23.871094 C 24.015625 23.707031 23.886719 23.644531 23.691406 23.675781 Z M 23.691406 23.675781 "/>
<use xlink:href="#surface14" mask="url(#mask3)"/>
<path style=" stroke:none;fill-rule:evenodd;fill:rgb(90.588235%,71.764706%,70.588235%);fill-opacity:1;" d="M 70.300781 22.988281 C 70.277344 23.222656 70.179688 23.417969 70.007812 23.578125 C 70.195312 23.671875 70.386719 23.707031 70.59375 23.675781 C 70.59375 23.710938 70.59375 23.742188 70.59375 23.773438 C 70.5625 23.773438 70.527344 23.773438 70.496094 23.773438 C 70.300781 23.773438 70.105469 23.773438 69.910156 23.773438 C 69.949219 23.535156 70.015625 23.308594 70.105469 23.089844 C 70.171875 23.054688 70.234375 23.023438 70.300781 22.988281 Z M 70.300781 22.988281 "/>
<path style=" stroke:none;fill-rule:evenodd;fill:rgb(79.215686%,39.215686%,36.470588%);fill-opacity:1;" d="M 70.105469 23.089844 C 70.015625 23.308594 69.949219 23.535156 69.910156 23.773438 C 70.105469 23.773438 70.300781 23.773438 70.496094 23.773438 C 70.257812 23.871094 69.996094 23.902344 69.71875 23.871094 C 69.648438 23.503906 69.777344 23.242188 70.105469 23.089844 Z M 70.105469 23.089844 "/>
<path style=" stroke:none;fill-rule:evenodd;fill:rgb(80.392157%,41.568627%,38.823529%);fill-opacity:1;" d="M 85.1875 23.382812 C 84.84375 23.859375 84.390625 23.988281 83.824219 23.773438 C 83.839844 23.714844 83.871094 23.683594 83.921875 23.675781 C 84.128906 23.789062 84.359375 23.804688 84.605469 23.726562 C 84.789062 23.585938 84.984375 23.46875 85.1875 23.382812 Z M 85.1875 23.382812 "/>
<path style=" stroke:none;fill-rule:evenodd;fill:rgb(83.529412%,50.588235%,47.843137%);fill-opacity:1;" d="M 76.332031 24.65625 C 76.332031 24.492188 76.332031 24.332031 76.332031 24.167969 C 76.121094 24.1875 75.925781 24.253906 75.75 24.363281 C 76.34375 23.648438 76.539062 23.746094 76.332031 24.65625 Z M 76.332031 24.65625 "/>
<path style=" stroke:none;fill-rule:evenodd;fill:rgb(78.823529%,37.647059%,33.333333%);fill-opacity:1;" d="M 74.875 23.773438 C 74.640625 24.109375 74.347656 24.371094 74 24.558594 C 74.230469 24.226562 74.523438 23.964844 74.875 23.773438 Z M 74.875 23.773438 "/>
<path style=" stroke:none;fill-rule:evenodd;fill:rgb(81.960784%,47.058824%,43.137255%);fill-opacity:1;" d="M 81.976562 23.96875 C 81.945312 24.234375 81.8125 24.429688 81.589844 24.558594 C 81.667969 24.328125 81.800781 24.132812 81.976562 23.96875 Z M 81.976562 23.96875 "/>
<path style=" stroke:none;fill-rule:evenodd;fill:rgb(82.745098%,49.019608%,45.882353%);fill-opacity:1;" d="M 73.414062 24.265625 C 73.414062 24.429688 73.414062 24.589844 73.414062 24.753906 C 73.511719 24.753906 73.609375 24.753906 73.707031 24.753906 C 73.484375 24.910156 73.257812 25.074219 73.027344 25.246094 C 72.992188 25.195312 72.960938 25.148438 72.929688 25.097656 C 73.078125 24.800781 73.242188 24.523438 73.414062 24.265625 Z M 73.414062 24.265625 "/>
<use xlink:href="#surface17" mask="url(#mask4)"/>
<path style=" stroke:none;fill-rule:evenodd;fill:rgb(76.078431%,29.803922%,24.313725%);fill-opacity:1;" d="M 67.867188 23.96875 C 67.667969 24.238281 67.507812 24.53125 67.382812 24.851562 C 67.148438 25.066406 66.890625 25.230469 66.605469 25.34375 C 66.953125 24.824219 67.375 24.367188 67.867188 23.96875 Z M 67.867188 23.96875 "/>
<path style=" stroke:none;fill-rule:evenodd;fill:rgb(92.156863%,73.333333%,68.627451%);fill-opacity:1;" d="M 25.738281 26.324219 C 25.65625 25.882812 25.609375 25.425781 25.589844 24.949219 C 25.523438 25.023438 25.445312 25.058594 25.347656 25.050781 C 25.425781 24.890625 25.554688 24.828125 25.738281 24.851562 C 25.738281 25.34375 25.738281 25.832031 25.738281 26.324219 Z M 25.738281 26.324219 "/>
<use xlink:href="#surface20" mask="url(#mask5)"/>
<path style=" stroke:none;fill-rule:evenodd;fill:rgb(6.666667%,6.666667%,6.666667%);fill-opacity:1;" d="M 69.035156 25.636719 C 69.132812 25.636719 69.230469 25.636719 69.328125 25.636719 C 69.074219 26.277344 68.765625 26.898438 68.402344 27.5 C 68.320312 27.707031 68.171875 27.835938 67.964844 27.890625 C 67.664062 27.765625 67.433594 27.554688 67.285156 27.253906 C 67.886719 26.730469 68.46875 26.191406 69.035156 25.636719 Z M 69.035156 25.636719 "/>
<path style=" stroke:none;fill-rule:evenodd;fill:rgb(5.490196%,5.490196%,5.490196%);fill-opacity:1;" d="M 73.21875 27.597656 C 73.160156 27.511719 73.128906 27.414062 73.121094 27.304688 C 73.796875 26.71875 74.542969 26.261719 75.359375 25.929688 C 75.464844 26.382812 75.527344 26.839844 75.554688 27.304688 C 74.78125 27.441406 74.003906 27.539062 73.21875 27.597656 Z M 73.21875 27.597656 "/>
<path style=" stroke:none;fill-rule:evenodd;fill:rgb(88.627451%,64.313725%,61.960784%);fill-opacity:1;" d="M 63.976562 26.421875 C 64.0625 26.492188 64.097656 26.589844 64.074219 26.714844 C 64.332031 26.714844 64.59375 26.714844 64.851562 26.714844 C 64.589844 26.933594 64.296875 26.964844 63.976562 26.8125 C 63.976562 26.683594 63.976562 26.550781 63.976562 26.421875 Z M 63.976562 26.421875 "/>
<path style=" stroke:none;fill-rule:evenodd;fill:rgb(6.666667%,6.666667%,6.666667%);fill-opacity:1;" d="M 60.960938 27.304688 C 61.167969 27.292969 61.363281 27.339844 61.542969 27.449219 C 62.074219 27.859375 62.578125 28.296875 63.050781 28.773438 C 63.089844 29.058594 62.992188 29.285156 62.761719 29.460938 C 61.957031 29.011719 61.179688 28.519531 60.425781 27.988281 C 60.359375 27.925781 60.359375 27.859375 60.425781 27.792969 C 60.652344 27.679688 60.828125 27.515625 60.960938 27.304688 Z M 60.960938 27.304688 "/>
<path style=" stroke:none;fill-rule:evenodd;fill:rgb(51.764706%,51.372549%,51.764706%);fill-opacity:1;" d="M 73.121094 27.304688 C 73.128906 27.414062 73.160156 27.511719 73.21875 27.597656 C 72.753906 27.578125 72.71875 27.480469 73.121094 27.304688 Z M 73.121094 27.304688 "/>
<path style=" stroke:none;fill-rule:evenodd;fill:rgb(65.882353%,65.882353%,65.882353%);fill-opacity:1;" d="M 38.386719 27.890625 C 38.476562 28.03125 38.511719 28.195312 38.484375 28.382812 C 38.125 28.382812 37.769531 28.382812 37.414062 28.382812 C 37.6875 28.300781 37.976562 28.253906 38.289062 28.234375 C 38.371094 28.136719 38.402344 28.023438 38.386719 27.890625 Z M 38.386719 27.890625 "/>
<path style=" stroke:none;fill-rule:evenodd;fill:rgb(78.431373%,27.843137%,23.921569%);fill-opacity:1;" d="M 58.429688 28.675781 C 52.902344 28.632812 47.386719 28.699219 41.890625 28.871094 C 45.566406 28.628906 49.265625 28.496094 52.980469 28.480469 C 54.816406 28.472656 56.632812 28.539062 58.429688 28.675781 Z M 58.429688 28.675781 "/>
<path style=" stroke:none;fill-rule:evenodd;fill:rgb(67.843137%,7.058824%,2.352941%);fill-opacity:1;" d="M 74.191406 28.382812 C 75.785156 28.40625 77.375 28.488281 78.960938 28.628906 C 82.546875 29.09375 86.144531 29.324219 89.761719 29.3125 C 90.46875 29.109375 91.179688 28.929688 91.902344 28.773438 C 92 28.808594 92.097656 28.839844 92.195312 28.871094 C 91.6875 29.234375 91.167969 29.578125 90.636719 29.902344 C 89.464844 30.277344 88.261719 30.539062 87.035156 30.6875 C 83.257812 30.773438 79.476562 30.722656 75.703125 30.539062 C 74.019531 30.601562 72.347656 30.765625 70.691406 31.03125 C 70.570312 30.054688 70.960938 29.386719 71.859375 29.019531 C 72.636719 28.769531 73.417969 28.558594 74.191406 28.382812 Z M 74.191406 28.382812 "/>
<path style=" stroke:none;fill-rule:evenodd;fill:rgb(71.764706%,17.647059%,12.54902%);fill-opacity:1;" d="M 29.433594 29.363281 C 29.433594 29.394531 29.433594 29.429688 29.433594 29.460938 C 28.839844 29.421875 28.253906 29.46875 27.683594 29.609375 C 27.914062 29.644531 28.144531 29.644531 28.363281 29.609375 C 28.289062 29.671875 28.257812 29.753906 28.265625 29.851562 C 28.011719 29.792969 27.75 29.746094 27.488281 29.707031 C 26.84375 29.425781 26.195312 29.183594 25.542969 28.96875 C 25.542969 28.839844 25.542969 28.710938 25.542969 28.578125 C 26.375 28.855469 27.21875 29.097656 28.070312 29.3125 C 28.523438 29.363281 28.980469 29.378906 29.433594 29.363281 Z M 29.433594 29.363281 "/>
<path style=" stroke:none;fill-rule:evenodd;fill:rgb(67.45098%,5.490196%,1.176471%);fill-opacity:1;" d="M 58.429688 28.675781 C 59.492188 28.851562 60.496094 29.195312 61.445312 29.707031 C 61.910156 30.109375 62.136719 30.617188 62.128906 31.226562 C 61.179688 30.921875 60.203125 30.707031 59.207031 30.589844 C 50.648438 30.703125 42.085938 30.738281 33.519531 30.6875 C 32.316406 30.585938 31.117188 30.457031 29.921875 30.292969 C 29.34375 30.203125 28.792969 30.054688 28.265625 29.851562 C 28.257812 29.753906 28.289062 29.671875 28.363281 29.609375 C 28.144531 29.644531 27.914062 29.644531 27.683594 29.609375 C 28.253906 29.46875 28.839844 29.421875 29.433594 29.460938 C 31.316406 29.476562 33.195312 29.460938 35.078125 29.410156 C 37.027344 29.269531 38.972656 29.125 40.914062 28.96875 C 41.21875 28.875 41.542969 28.84375 41.890625 28.871094 C 47.386719 28.699219 52.902344 28.632812 58.429688 28.675781 Z M 58.429688 28.675781 "/>
<path style=" stroke:none;fill-rule:evenodd;fill:rgb(78.823529%,28.627451%,23.921569%);fill-opacity:1;" d="M 40.914062 28.96875 C 38.972656 29.125 37.027344 29.269531 35.078125 29.410156 C 33.195312 29.460938 31.316406 29.476562 29.433594 29.460938 C 29.433594 29.429688 29.433594 29.394531 29.433594 29.363281 C 33.265625 29.289062 37.089844 29.160156 40.914062 28.96875 Z M 40.914062 28.96875 "/>
<path style=" stroke:none;fill-rule:evenodd;fill:rgb(61.960784%,61.960784%,61.960784%);fill-opacity:1;" d="M 32.644531 31.519531 C 33.125 31.507812 33.578125 31.570312 34.007812 31.714844 C 33.527344 31.730469 33.074219 31.664062 32.644531 31.519531 Z M 32.644531 31.519531 "/>
</g>
</svg>
